<?xml version="1.0" standalone="no"?>
<!DOCTYPE svg PUBLIC "-//W3C//DTD SVG 20010904//EN"
 "http://www.w3.org/TR/2001/REC-SVG-20010904/DTD/svg10.dtd">
<svg version="1.0" xmlns="http://www.w3.org/2000/svg"
 width="438.000000pt" height="438.000000pt" viewBox="0 0 438.000000 438.000000"
 preserveAspectRatio="xMidYMid meet">
<metadata>
Created by potrace 1.11, written by Peter Selinger 2001-2013
</metadata>
<g transform="translate(0.000000,438.000000) scale(0.100000,-0.100000)"
fill="#000000" stroke="none">
<path d="M1819 4006 c-2 -2 -51 -7 -109 -10 -102 -7 -129 -10 -207 -22 -21 -3
-56 -7 -77 -10 -58 -7 -253 -59 -316 -84 -72 -28 -189 -91 -226 -121 -127
-106 -226 -265 -260 -420 -27 -123 -33 -197 -30 -359 4 -184 4 -185 37 -320
37 -150 121 -302 216 -391 41 -39 148 -119 159 -119 3 0 18 -8 32 -18 81 -55
275 -128 503 -190 144 -39 715 -192 734 -197 6 -1 17 -5 25 -8 15 -6 116 -34
155 -42 68 -15 162 -51 217 -84 86 -51 111 -98 105 -196 -7 -117 -50 -173
-157 -205 -139 -41 -247 -45 -1131 -44 l-777 0 -7 -95 c-4 -53 -8 -104 -10
-113 -2 -9 -6 -54 -10 -100 -3 -46 -8 -99 -10 -118 -4 -34 -12 -113 -20 -196
l-4 -41 112 -18 c127 -19 132 -20 207 -29 30 -4 69 -9 85 -11 17 -2 64 -7 105
-10 41 -4 86 -9 100 -11 14 -2 68 -6 120 -9 52 -4 113 -8 135 -10 231 -24
1034 -24 1186 0 13 2 51 6 84 10 32 4 68 9 79 11 11 2 37 6 57 9 68 10 274 63
330 85 234 92 362 213 446 421 27 67 45 132 69 254 10 52 13 378 4 440 -21
141 -50 238 -100 331 -44 83 -57 100 -130 171 -151 148 -365 245 -789 359
-113 30 -249 67 -301 81 -52 14 -142 38 -200 54 -58 15 -132 35 -165 45 -33 9
-68 17 -77 19 -76 15 -222 61 -281 88 -109 51 -141 104 -136 231 6 149 47 181
264 203 77 7 790 8 1317 0 376 -5 407 -4 412 11 5 19 13 78 21 173 4 36 8 79
10 95 2 16 7 61 10 99 4 39 9 81 11 95 2 14 7 62 10 106 l6 82 -41 7 c-46 8
-64 10 -136 19 -27 4 -57 9 -65 11 -8 2 -40 7 -70 10 -30 3 -89 10 -130 15
-89 11 -147 17 -255 25 -44 4 -96 8 -115 10 -19 2 -91 7 -160 10 -69 4 -147 9
-175 11 -66 5 -681 14 -686 10z"/>
</g>
</svg>
